<svg version="1.1" xmlns="http://www.w3.org/2000/svg" viewBox="0 0 797.9946505081452 1303.2748665237666" width="797.9946505081452" height="1303.2748665237666">
  <!-- svg-source:excalidraw -->
  
  <defs>
    <style class="style-fonts">
      @font-face {
        font-family: "Virgil";
        src: url("https://excalidraw.com/Virgil.woff2");
      }
      @font-face {
        font-family: "Cascadia";
        src: url("https://excalidraw.com/Cascadia.woff2");
      }
    </style>
  </defs>
  <g stroke-linecap="round" transform="translate(286.713420412302 670.2547362053649) rotate(0 73.5 25)"><path d="M0 0 C0 0, 0 0, 0 0 M0 0 C0 0, 0 0, 0 0 M-0.3 6.62 C1.09 3.69, 3.56 2.95, 4.86 -0.27 M-0.59 6.11 C1.21 4.64, 2.69 3.27, 4.9 0.73 M0.05 12.21 C5.13 6.92, 9.75 4.07, 9.85 1.03 M0.06 11.99 C3.72 8.98, 7.05 4.4, 10.61 -0.42 M1.46 17.01 C4.01 12.39, 11.96 6.52, 15.27 0.69 M-0.87 17.93 C5.51 12.43, 12.45 5.99, 16.46 0.37 M0.07 25.8 C10.37 15.84, 18.11 5.71, 19.83 1.26 M0.55 24.65 C5.3 17.2, 11.55 10.29, 21.39 -0.83 M-0.6 29.84 C6.52 21.88, 16.97 14.02, 24.6 -0.59 M-0.56 29.84 C8.48 20.23, 17.14 10.56, 26.88 -0.47 M0.06 37.65 C8.9 25.02, 22.27 11.49, 30.14 -0.48 M-0.8 37.03 C7.58 28.69, 13.63 20.38, 32.07 -1.08 M0.78 43.26 C10.34 33.24, 20.52 20.82, 36.07 -0.06 M-0.49 43.41 C9.29 33.27, 16.77 24.17, 37.48 -0.72 M1.58 48.4 C14.1 31.44, 27.82 18.38, 41.43 0.87 M-0.66 48.57 C16.02 31.25, 32.83 10.94, 42.24 0.48 M1.29 52.91 C16.67 35.9, 30.24 21.33, 48.47 -1.65 M1.48 52.55 C14.07 36.52, 27.63 22.57, 47.79 0.87 M7.51 50.96 C21.6 38.63, 32.29 24.32, 54.95 0.16 M8.27 52.62 C23.84 34.81, 39.13 15.85, 53.09 0.81 M13.62 51.25 C24.45 40.42, 35.93 28.3, 58 -0.19 M13.64 53.11 C27.86 35.04, 42.35 18.47, 58.37 -0.78 M17.71 53.65 C29.79 39.02, 41.54 25.04, 62.38 0.4 M17.87 52.6 C27.56 40.85, 38.63 28.6, 64.33 -0.92 M21.77 52.18 C32.35 42.14, 43.2 28.59, 68.3 0.61 M23.73 52.5 C37.51 36.45, 52.83 18.64, 67.84 -0.03 M30.02 52.91 C40.38 34.63, 56 19.79, 75.76 -1.38 M28.67 51.59 C39.86 41.88, 48.84 29.18, 75.2 -0.37 M34.69 53.91 C43.55 43.44, 54.13 29.8, 80.36 2.09 M33.57 51.53 C43.87 41.52, 52.45 31.65, 79.84 0.45 M38.35 51.2 C52.53 37.89, 61.6 26.54, 85.59 0.01 M38.92 51.38 C51.31 37.18, 63.76 24.13, 85.52 -0.97 M43.72 50.7 C56.59 40.37, 65.88 28.76, 90.63 0.72 M45.54 51.18 C57.49 37.67, 71.3 21.53, 90.09 0.71 M51.99 50.12 C64.24 36.46, 77.69 18.27, 94.73 -0.2 M50.86 52.44 C63.06 37.94, 73.12 24.96, 96.65 -0.93 M56.62 50.95 C71.14 35.57, 87.98 17.63, 100.93 2.05 M55.56 51.68 C67.05 37.4, 79.85 23.08, 101.33 0.49 M61.66 52.35 C70.2 42.38, 79.12 28.5, 104.47 1.35 M61.82 50.95 C75.58 33.51, 92.69 16.76, 106.48 -0.31 M67.55 51.12 C80.13 35.44, 92.82 20.74, 112.5 -1.29 M66.07 51.41 C74.82 41.86, 85.2 30.59, 110.37 0.24 M72.81 52.39 C84.37 39.77, 96.65 21.75, 115.84 -1.14 M70.51 52.56 C82.18 38.9, 94.15 26.17, 115.8 0.84 M75.08 53.78 C91.95 37.99, 105.58 21.94, 119.99 0.46 M77.1 52.01 C90.5 35.61, 104.28 19.75, 121.05 0.11 M82.27 51.62 C93.24 36.36, 107.38 20.74, 126.27 0.34 M82.63 52.33 C98.63 31.09, 116.48 10.37, 125.92 0.38 M88.17 53.59 C106.1 32.75, 121.26 10.55, 133.45 0.12 M87.2 51.28 C103.22 33.55, 120.31 13.1, 133.26 0.94 M92.31 52.73 C109.26 33.71, 125.93 11.34, 135.59 2.19 M92 52.33 C107.07 35.08, 121.96 19.26, 137.72 -0.36 M96.22 51.3 C106.25 39.42, 120.08 27.67, 144.33 -0.39 M98.48 52.23 C115.53 31.96, 132.36 12.57, 143.94 -0.69 M103.27 50.78 C116.93 33.6, 133.6 16.14, 146.06 0.87 M102.11 51.54 C115.55 37.52, 129.45 23.25, 146.64 0.17 M107 51.76 C116.41 41.95, 124.32 32.37, 149.6 6.75 M107.57 52.1 C118.91 41.13, 127.93 31.38, 148.18 7.26 M114.89 51.92 C124.71 38.45, 136.39 26.86, 147.82 12.77 M114.5 51.65 C123.34 41.41, 132.71 31.28, 147.12 12.51 M120.7 53.91 C130.33 40.94, 138.77 30.27, 146.84 18.14 M118.69 51.3 C127.34 42.54, 135.4 32.55, 147.31 18.25 M124.3 51.37 C133.05 45.87, 139.07 36.38, 148.42 24.48 M123.79 52.08 C128.79 47.57, 134.39 42.12, 147.19 25.54 M127.93 52.79 C133.73 45.55, 136.8 39.98, 147.65 30.46 M130.57 52.46 C136.48 44.77, 143.69 36.6, 147.36 31.41 M136.07 51.48 C137.3 47.89, 143.3 42.05, 146 36.01 M134.6 52.92 C138.76 48.11, 142.94 43.56, 148.58 36.65 M140.02 52.77 C141.38 48.64, 144.27 47.8, 146.98 44.07 M139.92 51.61 C142.82 48.64, 146.1 45.5, 147.16 43.03" stroke="#fab005" stroke-width="0.5" fill="none"></path><path d="M-1.83 0.21 C43.74 1.13, 87.21 0.4, 147.8 0.67 M0.98 -0.39 C47.43 0.48, 95.06 -0.74, 147.82 0.27 M146.63 -1.96 C148.37 12.56, 146.35 25.97, 146.42 50.49 M146.58 0.94 C146.03 17.79, 146.43 35.46, 147.15 50.33 M148.83 50.83 C111.96 48.12, 77.45 48.55, -1.02 49.55 M146.68 49.16 C90.56 50.1, 33.48 48.63, 0.56 49.28 M-0.59 51.59 C-0.32 34.07, -1.6 18.04, 0.47 1.4 M-0.86 49.96 C-0.84 30.39, 0.53 9.69, -1 -0.94" stroke="#000000" stroke-width="1" fill="none"></path></g><g transform="translate(313.8693194601536 675.2547362053649) rotate(0 46.34410095214844 19.200000000000045)"><text x="46.34410095214844" y="0" font-family="Virgil, Segoe UI Emoji" font-size="16px" fill="#000000" text-anchor="middle" style="white-space: pre;" direction="ltr" dominant-baseline="text-before-edge">voting time </text><text x="46.34410095214844" y="19.2" font-family="Virgil, Segoe UI Emoji" font-size="16px" fill="#000000" text-anchor="middle" style="white-space: pre;" direction="ltr" dominant-baseline="text-before-edge">passes</text></g><g stroke-linecap="round"><g transform="translate(260.6711533503962 518.8108789095329) rotate(0 -94.28423515128458 162.999028725818)"><path d="M0 0 C-28.55 6.21, -140.63 -17.08, -171.31 37.25 C-201.99 91.58, -181.97 277.87, -184.1 326 M0 0 C-28.55 6.21, -140.63 -17.08, -171.31 37.25 C-201.99 91.58, -181.97 277.87, -184.1 326" stroke="#000000" stroke-width="1" fill="none"></path></g><g transform="translate(260.6711533503962 518.8108789095329) rotate(0 -94.28423515128458 162.999028725818)"><path d="M-195.16 298.11 C-192.19 305.61, -189.21 313.11, -184.1 326 M-195.16 298.11 C-192.24 305.48, -189.32 312.85, -184.1 326" stroke="#000000" stroke-width="1" fill="none"></path></g><g transform="translate(260.6711533503962 518.8108789095329) rotate(0 -94.28423515128458 162.999028725818)"><path d="M-174.65 297.53 C-177.19 305.18, -179.73 312.84, -184.1 326 M-174.65 297.53 C-177.15 305.05, -179.64 312.57, -184.1 326" stroke="#000000" stroke-width="1" fill="none"></path></g></g><mask></mask><g stroke-linecap="round" transform="translate(270.5707316417009 93.05352210406966) rotate(0 67.91666666666663 52.916666666666686)"><path d="M0 0 C0 0, 0 0, 0 0 M0 0 C0 0, 0 0, 0 0 M-0.26 6.4 C1.8 4.03, 3.85 1.67, 4.99 0.36 M-0.26 6.4 C1.72 4.11, 3.71 1.83, 4.99 0.36 M0.13 12.04 C2.9 8.86, 5.67 5.68, 10.63 -0.03 M0.13 12.04 C3.86 7.76, 7.58 3.47, 10.63 -0.03 M-0.13 18.44 C3.82 13.9, 7.76 9.36, 15.62 0.33 M-0.13 18.44 C5.52 11.94, 11.17 5.44, 15.62 0.33 M0.27 24.08 C8.07 15.1, 15.88 6.12, 21.26 -0.07 M0.27 24.08 C7.16 16.15, 14.06 8.22, 21.26 -0.07 M0 30.48 C7.05 22.38, 14.09 14.28, 26.25 0.29 M0 30.48 C7.07 22.35, 14.14 14.22, 26.25 0.29 M-0.26 36.88 C9.39 25.78, 19.04 14.68, 31.89 -0.1 M-0.26 36.88 C6.39 29.23, 13.04 21.58, 31.89 -0.1 M0.14 42.52 C12.74 28.02, 25.35 13.52, 36.88 0.26 M0.14 42.52 C8.93 32.41, 17.72 22.29, 36.88 0.26 M-0.12 48.92 C12.08 34.88, 24.27 20.85, 42.52 -0.14 M-0.12 48.92 C12.31 34.61, 24.75 20.31, 42.52 -0.14 M0.27 54.56 C11.01 42.21, 21.75 29.85, 47.51 0.22 M0.27 54.56 C17.65 34.57, 35.03 14.57, 47.51 0.22 M0.01 60.96 C19.78 38.22, 39.54 15.48, 53.15 -0.17 M0.01 60.96 C16.22 42.32, 32.42 23.67, 53.15 -0.17 M-0.25 67.36 C13.07 52.03, 26.4 36.7, 58.14 0.19 M-0.25 67.36 C12.89 52.24, 26.03 37.12, 58.14 0.19 M0.14 73 C19.54 50.68, 38.94 28.37, 63.78 -0.21 M0.14 73 C18.55 51.82, 36.96 30.65, 63.78 -0.21 M-0.12 79.4 C21.07 55.02, 42.27 30.64, 68.77 0.15 M-0.12 79.4 C24.04 51.61, 48.19 23.82, 68.77 0.15 M0.28 85.04 C17.81 64.87, 35.34 44.7, 74.41 -0.24 M0.28 85.04 C23.05 58.84, 45.83 32.63, 74.41 -0.24 M0.01 91.44 C30.36 56.54, 60.7 21.63, 79.4 0.12 M0.01 91.44 C28.21 59, 56.41 26.56, 79.4 0.12 M-0.25 97.84 C18.8 75.92, 37.85 54.01, 85.04 -0.28 M-0.25 97.84 C28.92 64.29, 58.08 30.74, 85.04 -0.28 M0.15 103.48 C20.2 80.41, 40.26 57.33, 90.03 0.08 M0.15 103.48 C19.86 80.8, 39.57 58.12, 90.03 0.08 M1.85 107.61 C32.48 72.38, 63.11 37.15, 95.67 -0.31 M1.85 107.61 C39.07 64.8, 76.29 21.99, 95.67 -0.31 M7.5 107.22 C40.7 69.02, 73.91 30.82, 100.66 0.05 M7.5 107.22 C44.21 64.99, 80.92 22.76, 100.66 0.05 M12.48 107.58 C41.72 73.95, 70.96 40.31, 106.3 -0.34 M12.48 107.58 C49.56 64.93, 86.63 22.29, 106.3 -0.34 M18.13 107.18 C51.92 68.31, 85.71 29.44, 111.29 0.02 M18.13 107.18 C46.14 74.96, 74.15 42.74, 111.29 0.02 M23.11 107.54 C55.66 70.1, 88.21 32.66, 116.27 0.38 M23.11 107.54 C49.32 77.4, 75.52 47.26, 116.27 0.38 M28.76 107.15 C63.91 66.72, 99.06 26.28, 121.92 -0.02 M28.76 107.15 C50.26 82.41, 71.76 57.68, 121.92 -0.02 M33.74 107.51 C63.08 73.77, 92.41 40.02, 126.91 0.34 M33.74 107.51 C63.5 73.28, 93.25 39.06, 126.91 0.34 M38.73 107.87 C75.34 65.76, 111.95 23.65, 132.55 -0.05 M38.73 107.87 C61.85 81.27, 84.97 54.68, 132.55 -0.05 M44.37 107.48 C71.01 76.83, 97.65 46.19, 136.88 1.06 M44.37 107.48 C80.82 65.55, 117.27 23.62, 136.88 1.06 M49.36 107.84 C79.79 72.83, 110.22 37.82, 137.27 6.7 M49.36 107.84 C73.96 79.54, 98.55 51.25, 137.27 6.7 M55 107.44 C75.77 83.56, 96.53 59.68, 137.01 13.1 M55 107.44 C80.44 78.18, 105.87 48.93, 137.01 13.1 M59.99 107.8 C78.76 86.21, 97.53 64.62, 136.75 19.5 M59.99 107.8 C77.91 87.19, 95.82 66.58, 136.75 19.5 M65.63 107.41 C94.22 74.52, 122.81 41.64, 137.15 25.14 M65.63 107.41 C86.58 83.31, 107.53 59.21, 137.15 25.14 M70.62 107.77 C86.48 89.52, 102.34 71.28, 136.88 31.54 M70.62 107.77 C89.19 86.41, 107.75 65.05, 136.88 31.54 M76.26 107.37 C89.79 91.82, 103.31 76.26, 137.28 37.18 M76.26 107.37 C93.83 87.16, 111.4 66.95, 137.28 37.18 M81.25 107.73 C100.18 85.96, 119.11 64.18, 137.02 43.58 M81.25 107.73 C101.51 84.42, 121.77 61.12, 137.02 43.58 M86.9 107.34 C97.73 94.87, 108.57 82.4, 136.76 49.98 M86.9 107.34 C99.91 92.37, 112.92 77.4, 136.76 49.98 M91.88 107.7 C105.84 91.64, 119.79 75.59, 137.15 55.62 M91.88 107.7 C105.29 92.27, 118.71 76.84, 137.15 55.62 M97.53 107.3 C112.89 89.63, 128.26 71.95, 136.89 62.02 M97.53 107.3 C109.27 93.8, 121.01 80.29, 136.89 62.02 M102.51 107.66 C114.93 93.38, 127.34 79.1, 136.63 68.42 M102.51 107.66 C111.48 97.34, 120.45 87.02, 136.63 68.42 M108.16 107.27 C118.21 95.7, 128.27 84.12, 137.02 74.06 M108.16 107.27 C117 97.1, 125.84 86.93, 137.02 74.06 M113.14 107.63 C119.74 100.04, 126.34 92.45, 136.76 80.46 M113.14 107.63 C120.64 99.01, 128.13 90.38, 136.76 80.46 M118.79 107.23 C122.54 102.91, 126.3 98.59, 137.16 86.1 M118.79 107.23 C124.51 100.65, 130.24 94.06, 137.16 86.1 M123.77 107.59 C127.47 103.34, 131.17 99.09, 136.89 92.5 M123.77 107.59 C127.5 103.31, 131.23 99.02, 136.89 92.5 M129.42 107.2 C131.4 104.91, 133.39 102.62, 136.63 98.9 M129.42 107.2 C132.03 104.2, 134.64 101.19, 136.63 98.9" stroke="#4c6ef5" stroke-width="0.5" fill="none"></path><path d="M0 0 C34.2 0, 68.39 0, 135.83 0 M0 0 C33.77 0, 67.54 0, 135.83 0 M135.83 0 C135.83 24.76, 135.83 49.52, 135.83 105.83 M135.83 0 C135.83 36.27, 135.83 72.53, 135.83 105.83 M135.83 105.83 C84.3 105.83, 32.76 105.83, 0 105.83 M135.83 105.83 C106.51 105.83, 77.19 105.83, 0 105.83 M0 105.83 C0 68.88, 0 31.93, 0 0 M0 105.83 C0 77.36, 0 48.89, 0 0" stroke="#000000" stroke-width="1" fill="none"></path></g><g transform="translate(309.20743004664877 133.97018877073629) rotate(0 29.27996826171875 12)"><text x="29.27996826171875" y="0" font-family="Virgil, Segoe UI Emoji" font-size="20px" fill="#000000" text-anchor="middle" style="white-space: pre;" direction="ltr" dominant-baseline="text-before-edge">Draft</text></g><g stroke-linecap="round" transform="translate(490.83698991048715 375.945784729038) rotate(0 68.5 52.91666666666674)"><path d="M0 0 C0 0, 0 0, 0 0 M0 0 C0 0, 0 0, 0 0 M-0.26 6.4 C1.22 4.69, 2.71 2.98, 4.99 0.36 M-0.26 6.4 C1.3 4.61, 2.86 2.81, 4.99 0.36 M0.13 12.04 C2.26 9.6, 4.38 7.16, 10.63 -0.03 M0.13 12.04 C3.01 8.73, 5.89 5.42, 10.63 -0.03 M-0.13 18.44 C3.86 13.85, 7.86 9.25, 15.62 0.33 M-0.13 18.44 C3.54 14.22, 7.2 10.01, 15.62 0.33 M0.27 24.08 C7.6 15.64, 14.93 7.21, 21.26 -0.07 M0.27 24.08 C7.83 15.38, 15.4 6.67, 21.26 -0.07 M0 30.48 C7.24 22.15, 14.48 13.83, 26.25 0.29 M0 30.48 C6.8 22.67, 13.59 14.85, 26.25 0.29 M-0.26 36.88 C7.62 27.81, 15.5 18.75, 31.89 -0.1 M-0.26 36.88 C10.63 24.35, 21.53 11.82, 31.89 -0.1 M0.14 42.52 C12.96 27.77, 25.78 13.03, 36.88 0.26 M0.14 42.52 C11.81 29.09, 23.49 15.66, 36.88 0.26 M-0.12 48.92 C13.16 33.64, 26.45 18.35, 42.52 -0.14 M-0.12 48.92 C9.12 38.29, 18.35 27.66, 42.52 -0.14 M0.27 54.56 C16.46 35.94, 32.65 17.32, 47.51 0.22 M0.27 54.56 C12.39 40.62, 24.51 26.68, 47.51 0.22 M0.01 60.96 C15.48 43.16, 30.95 25.37, 53.15 -0.17 M0.01 60.96 C13.61 45.32, 27.2 29.68, 53.15 -0.17 M-0.25 67.36 C17.1 47.39, 34.46 27.43, 58.14 0.19 M-0.25 67.36 C18.84 45.4, 37.93 23.44, 58.14 0.19 M0.14 73 C22.2 47.63, 44.25 22.26, 63.78 -0.21 M0.14 73 C17.52 53.01, 34.89 33.03, 63.78 -0.21 M-0.12 79.4 C22.12 53.82, 44.36 28.23, 68.77 0.15 M-0.12 79.4 C19.53 56.79, 39.18 34.19, 68.77 0.15 M0.28 85.04 C27.03 54.26, 53.79 23.48, 74.41 -0.24 M0.28 85.04 C25.44 56.1, 50.6 27.15, 74.41 -0.24 M0.01 91.44 C23.85 64.02, 47.68 36.61, 79.4 0.12 M0.01 91.44 C23.25 64.71, 46.48 37.98, 79.4 0.12 M-0.25 97.84 C20.01 74.53, 40.27 51.23, 85.04 -0.28 M-0.25 97.84 C23.71 70.28, 47.67 42.72, 85.04 -0.28 M0.15 103.48 C34.34 64.15, 68.52 24.82, 90.03 0.08 M0.15 103.48 C19.47 81.25, 38.8 59.02, 90.03 0.08 M1.85 107.61 C20.62 86.03, 39.38 64.44, 95.67 -0.31 M1.85 107.61 C37.34 66.79, 72.82 25.98, 95.67 -0.31 M7.5 107.22 C34.01 76.72, 60.53 46.21, 100.66 0.05 M7.5 107.22 C37.56 72.63, 67.63 38.05, 100.66 0.05 M12.48 107.58 C39.91 76.03, 67.34 44.47, 106.3 -0.34 M12.48 107.58 C37.5 78.8, 62.52 50.02, 106.3 -0.34 M18.13 107.18 C37.19 85.26, 56.25 63.33, 111.29 0.02 M18.13 107.18 C54.55 65.29, 90.97 23.39, 111.29 0.02 M23.11 107.54 C49.09 77.66, 75.07 47.77, 116.27 0.38 M23.11 107.54 C45.12 82.23, 67.13 56.91, 116.27 0.38 M28.76 107.15 C56.91 74.76, 85.07 42.37, 121.92 -0.02 M28.76 107.15 C65.98 64.32, 103.21 21.5, 121.92 -0.02 M33.74 107.51 C65.8 70.63, 97.86 33.75, 126.91 0.34 M33.74 107.51 C64.64 71.97, 95.54 36.43, 126.91 0.34 M38.73 107.87 C58.41 85.23, 78.09 62.6, 132.55 -0.05 M38.73 107.87 C60.61 82.7, 82.49 57.54, 132.55 -0.05 M44.37 107.48 C80.99 65.36, 117.6 23.24, 137.54 0.31 M44.37 107.48 C67.88 80.44, 91.38 53.4, 137.54 0.31 M49.36 107.84 C78.35 74.49, 107.34 41.14, 137.27 6.7 M49.36 107.84 C82.85 69.31, 116.35 30.78, 137.27 6.7 M55 107.44 C84 74.08, 113 40.72, 137.67 12.35 M55 107.44 C75.86 83.45, 96.71 59.47, 137.67 12.35 M59.99 107.8 C85.93 77.96, 111.88 48.11, 137.41 18.74 M59.99 107.8 C78.33 86.71, 96.66 65.61, 137.41 18.74 M65.63 107.41 C84.44 85.77, 103.24 64.14, 137.15 25.14 M65.63 107.41 C82.82 87.64, 100 67.88, 137.15 25.14 M70.62 107.77 C88.62 87.06, 106.62 66.35, 137.54 30.79 M70.62 107.77 C97.35 77.02, 124.08 46.27, 137.54 30.79 M76.26 107.37 C100.39 79.62, 124.51 51.87, 137.28 37.18 M76.26 107.37 C93.34 87.73, 110.41 68.09, 137.28 37.18 M81.25 107.73 C95.07 91.83, 108.89 75.94, 137.67 42.83 M81.25 107.73 C102.24 83.58, 123.23 59.44, 137.67 42.83 M86.9 107.34 C103.78 87.92, 120.66 68.49, 137.41 49.22 M86.9 107.34 C101.5 90.54, 116.1 73.75, 137.41 49.22 M91.88 107.7 C107.58 89.64, 123.27 71.59, 137.15 55.62 M91.88 107.7 C103.77 94.02, 115.66 80.34, 137.15 55.62 M97.53 107.3 C108.97 94.14, 120.41 80.98, 137.54 61.27 M97.53 107.3 C111.16 91.62, 124.8 75.93, 137.54 61.27 M102.51 107.66 C113.93 94.52, 125.35 81.39, 137.28 67.66 M102.51 107.66 C112.38 96.31, 122.25 84.95, 137.28 67.66 M108.16 107.27 C119.29 94.46, 130.43 81.64, 137.68 73.31 M108.16 107.27 C118.86 94.96, 129.55 82.65, 137.68 73.31 M113.14 107.63 C120.78 98.84, 128.42 90.06, 137.42 79.7 M113.14 107.63 C119.29 100.56, 125.43 93.49, 137.42 79.7 M118.79 107.23 C125.31 99.72, 131.84 92.21, 137.16 86.1 M118.79 107.23 C123.13 102.24, 127.47 97.24, 137.16 86.1 M123.77 107.59 C127.9 102.84, 132.04 98.09, 137.55 91.74 M123.77 107.59 C127.8 102.96, 131.83 98.32, 137.55 91.74 M129.42 107.2 C131.68 104.59, 133.94 101.99, 137.29 98.14 M129.42 107.2 C131.77 104.49, 134.13 101.78, 137.29 98.14 M134.4 107.56 C135.22 106.62, 136.04 105.68, 137.68 103.79 M134.4 107.56 C135.48 106.32, 136.56 105.08, 137.68 103.79" stroke="#4c6ef5" stroke-width="0.5" fill="none"></path><path d="M0 0 C46.12 0, 92.23 0, 137 0 M0 0 C29.85 0, 59.71 0, 137 0 M137 0 C137 26.39, 137 52.78, 137 105.83 M137 0 C137 26.54, 137 53.07, 137 105.83 M137 105.83 C100.39 105.83, 63.78 105.83, 0 105.83 M137 105.83 C106.37 105.83, 75.75 105.83, 0 105.83 M0 105.83 C0 70.46, 0 35.08, 0 0 M0 105.83 C0 72.61, 0 39.38, 0 0" stroke="#000000" stroke-width="1" fill="none"></path></g><g transform="translate(512.537040264491 416.8624513957045) rotate(0 46.799949645996094 12)"><text x="46.799949645996094" y="0" font-family="Virgil, Segoe UI Emoji" font-size="20px" fill="#000000" text-anchor="middle" style="white-space: pre;" direction="ltr" dominant-baseline="text-before-edge">SigningOff</text></g><g stroke-linecap="round"><g transform="translate(369.90121506374913 322.16106680970097) rotate(0 53.63779155283953 23.154536078193473)"><path d="M0 0 C40.81 17.62, 81.62 35.23, 107.28 46.31 M0 0 C35.16 15.18, 70.32 30.36, 107.28 46.31" stroke="#000000" stroke-width="1" fill="none"></path></g><g transform="translate(369.90121506374913 322.16106680970097) rotate(0 53.63779155283953 23.154536078193473)"><path d="M77.33 44.56 C88.72 45.22, 100.11 45.89, 107.28 46.31 M77.33 44.56 C87.14 45.13, 96.96 45.71, 107.28 46.31" stroke="#000000" stroke-width="1" fill="none"></path></g><g transform="translate(369.90121506374913 322.16106680970097) rotate(0 53.63779155283953 23.154536078193473)"><path d="M85.46 25.72 C93.76 33.55, 102.06 41.38, 107.28 46.31 M85.46 25.72 C92.61 32.47, 99.76 39.22, 107.28 46.31" stroke="#000000" stroke-width="1" fill="none"></path></g></g><mask></mask><g stroke-linecap="round" transform="translate(39.276837643680835 853.7197848097949) rotate(0 69 52.91666666666663)"><path d="M0 0 C0 0, 0 0, 0 0 M0 0 C0 0, 0 0, 0 0 M-0.26 6.4 C1.6 4.26, 3.46 2.11, 4.99 0.36 M-0.26 6.4 C1.72 4.12, 3.7 1.84, 4.99 0.36 M0.13 12.04 C2.34 9.51, 4.54 6.97, 10.63 -0.03 M0.13 12.04 C2.58 9.22, 5.03 6.41, 10.63 -0.03 M-0.13 18.44 C4.7 12.88, 9.53 7.33, 15.62 0.33 M-0.13 18.44 C4.59 13.01, 9.31 7.58, 15.62 0.33 M0.27 24.08 C7.65 15.59, 15.03 7.1, 21.26 -0.07 M0.27 24.08 C6.87 16.48, 13.47 8.89, 21.26 -0.07 M0 30.48 C6.93 22.51, 13.86 14.55, 26.25 0.29 M0 30.48 C6.23 23.32, 12.45 16.16, 26.25 0.29 M-0.26 36.88 C7.15 28.36, 14.56 19.83, 31.89 -0.1 M-0.26 36.88 C10.88 24.07, 22.01 11.26, 31.89 -0.1 M0.14 42.52 C9.61 31.63, 19.08 20.73, 36.88 0.26 M0.14 42.52 C8.84 32.51, 17.54 22.5, 36.88 0.26 M-0.12 48.92 C9.5 37.85, 19.12 26.78, 42.52 -0.14 M-0.12 48.92 C13.36 33.41, 26.84 17.9, 42.52 -0.14 M0.27 54.56 C11.61 41.52, 22.95 28.47, 47.51 0.22 M0.27 54.56 C9.79 43.61, 19.3 32.67, 47.51 0.22 M0.01 60.96 C15.24 43.44, 30.46 25.92, 53.15 -0.17 M0.01 60.96 C11.51 47.73, 23.01 34.5, 53.15 -0.17 M-0.25 67.36 C22.11 41.63, 44.47 15.91, 58.14 0.19 M-0.25 67.36 C22.42 41.28, 45.08 15.21, 58.14 0.19 M0.14 73 C14.97 55.94, 29.79 38.89, 63.78 -0.21 M0.14 73 C22.05 47.8, 43.95 22.6, 63.78 -0.21 M-0.12 79.4 C25.98 49.37, 52.08 19.35, 68.77 0.15 M-0.12 79.4 C21.17 54.91, 42.45 30.43, 68.77 0.15 M0.28 85.04 C19.18 63.3, 38.08 41.55, 74.41 -0.24 M0.28 85.04 C15.19 67.88, 30.1 50.73, 74.41 -0.24 M0.01 91.44 C27.04 60.35, 54.07 29.25, 79.4 0.12 M0.01 91.44 C18.3 70.4, 36.59 49.37, 79.4 0.12 M-0.25 97.84 C17.91 76.95, 36.06 56.07, 85.04 -0.28 M-0.25 97.84 C33.34 59.2, 66.93 20.56, 85.04 -0.28 M0.15 103.48 C27.19 72.38, 54.22 41.27, 90.03 0.08 M0.15 103.48 C24.74 75.19, 49.32 46.91, 90.03 0.08 M1.85 107.61 C33.51 71.2, 65.16 34.79, 95.67 -0.31 M1.85 107.61 C33.11 71.65, 64.37 35.7, 95.67 -0.31 M7.5 107.22 C36.68 73.65, 65.86 40.08, 100.66 0.05 M7.5 107.22 C36.81 73.5, 66.12 39.79, 100.66 0.05 M12.48 107.58 C43.4 72.01, 74.32 36.44, 106.3 -0.34 M12.48 107.58 C43.92 71.41, 75.36 35.25, 106.3 -0.34 M18.13 107.18 C50.86 69.52, 83.6 31.87, 111.29 0.02 M18.13 107.18 C44.59 76.74, 71.06 46.29, 111.29 0.02 M23.11 107.54 C47.4 79.61, 71.68 51.68, 116.27 0.38 M23.11 107.54 C52.93 73.24, 82.75 38.94, 116.27 0.38 M28.76 107.15 C48.25 84.72, 67.75 62.29, 121.92 -0.02 M28.76 107.15 C53.67 78.49, 78.58 49.84, 121.92 -0.02 M33.74 107.51 C59.11 78.33, 84.48 49.14, 126.91 0.34 M33.74 107.51 C62.92 73.94, 92.1 40.37, 126.91 0.34 M38.73 107.87 C57.6 86.16, 76.47 64.46, 132.55 -0.05 M38.73 107.87 C57.91 85.81, 77.09 63.74, 132.55 -0.05 M44.37 107.48 C70.13 77.85, 95.89 48.22, 137.54 0.31 M44.37 107.48 C76.46 70.56, 108.55 33.65, 137.54 0.31 M49.36 107.84 C73.39 80.2, 97.41 52.56, 141.21 2.18 M49.36 107.84 C85.18 66.63, 121 25.42, 141.21 2.18 M55 107.44 C76.95 82.19, 98.9 56.94, 140.95 8.57 M55 107.44 C84.94 73.01, 114.87 38.58, 140.95 8.57 M59.99 107.8 C79.81 85.01, 99.62 62.22, 140.69 14.97 M59.99 107.8 C90.13 73.13, 120.26 38.47, 140.69 14.97 M65.63 107.41 C92.92 76.02, 120.2 44.64, 141.08 20.61 M65.63 107.41 C85.55 84.5, 105.46 61.59, 141.08 20.61 M70.62 107.77 C86.64 89.34, 102.66 70.91, 140.82 27.01 M70.62 107.77 C88.79 86.86, 106.97 65.96, 140.82 27.01 M76.26 107.37 C90.43 91.08, 104.59 74.79, 141.21 32.66 M76.26 107.37 C98.05 82.32, 119.83 57.26, 141.21 32.66 M81.25 107.73 C93.5 93.65, 105.74 79.56, 140.95 39.05 M81.25 107.73 C93.49 93.65, 105.73 79.57, 140.95 39.05 M86.9 107.34 C98.61 93.86, 110.33 80.38, 140.69 45.45 M86.9 107.34 C98.25 94.27, 109.61 81.21, 140.69 45.45 M91.88 107.7 C111.17 85.5, 130.47 63.31, 141.09 51.09 M91.88 107.7 C107.89 89.28, 123.9 70.87, 141.09 51.09 M97.53 107.3 C107.25 96.12, 116.97 84.94, 140.83 57.49 M97.53 107.3 C108.12 95.12, 118.71 82.94, 140.83 57.49 M102.51 107.66 C115.11 93.18, 127.7 78.69, 141.22 63.13 M102.51 107.66 C117.53 90.39, 132.55 73.11, 141.22 63.13 M108.16 107.27 C117.07 97.01, 125.99 86.75, 140.96 69.53 M108.16 107.27 C121.07 92.41, 133.98 77.56, 140.96 69.53 M113.14 107.63 C123.1 96.18, 133.05 84.72, 140.7 75.93 M113.14 107.63 C121.84 97.62, 130.54 87.61, 140.7 75.93 M118.79 107.23 C124.68 100.46, 130.57 93.68, 141.09 81.57 M118.79 107.23 C125.95 98.99, 133.11 90.75, 141.09 81.57 M123.77 107.59 C130.2 100.2, 136.63 92.81, 140.83 87.97 M123.77 107.59 C128.65 101.98, 133.54 96.36, 140.83 87.97 M129.42 107.2 C132.67 103.46, 135.92 99.71, 141.22 93.61 M129.42 107.2 C132.89 103.2, 136.36 99.21, 141.22 93.61 M134.4 107.56 C136.17 105.53, 137.93 103.5, 140.96 100.01 M134.4 107.56 C135.92 105.81, 137.44 104.06, 140.96 100.01" stroke="#4c6ef5" stroke-width="0.5" fill="none"></path><path d="M0 0 C37.43 0, 74.86 0, 138 0 M0 0 C53.17 0, 106.35 0, 138 0 M138 0 C138 36.24, 138 72.48, 138 105.83 M138 0 C138 27.27, 138 54.54, 138 105.83 M138 105.83 C100.32 105.83, 62.64 105.83, 0 105.83 M138 105.83 C83.55 105.83, 29.1 105.83, 0 105.83 M0 105.83 C0 63.81, 0 21.8, 0 0 M0 105.83 C0 66.05, 0 26.26, 0 0" stroke="#000000" stroke-width="1" fill="none"></path></g><g transform="translate(63.58688097864177 894.6364514764616) rotate(0 44.68995666503906 12)"><text x="44.68995666503906" y="0" font-family="Virgil, Segoe UI Emoji" font-size="20px" fill="#000000" text-anchor="middle" style="white-space: pre;" direction="ltr" dominant-baseline="text-before-edge">Cancelled</text></g><g transform="translate(244.50485502521673 10) rotate(0 90.5921859741211 10)"><text x="0" y="0" font-family="Virgil, Segoe UI Emoji" font-size="16px" fill="#000000" text-anchor="start" style="white-space: pre;" direction="ltr" dominant-baseline="text-before-edge">proces create proposal</text></g><g stroke-linecap="round"><g transform="translate(337.8861992528776 38.66491458128496) rotate(0 0 24.26713431147732)"><path d="M0 0 C0 12.15, 0 24.29, 0 48.53 M0 0 C0 17.87, 0 35.75, 0 48.53" stroke="#000000" stroke-width="1" fill="none"></path></g><g transform="translate(337.8861992528776 38.66491458128496) rotate(0 0 24.26713431147732)"><path d="M-8.3 25.73 C-6.22 31.44, -4.15 37.14, 0 48.53 M-8.3 25.73 C-5.24 34.13, -2.19 42.53, 0 48.53" stroke="#000000" stroke-width="1" fill="none"></path></g><g transform="translate(337.8861992528776 38.66491458128496) rotate(0 0 24.26713431147732)"><path d="M8.3 25.73 C6.22 31.44, 4.15 37.14, 0 48.53 M8.3 25.73 C5.24 34.13, 2.19 42.53, 0 48.53" stroke="#000000" stroke-width="1" fill="none"></path></g></g><mask></mask><g transform="translate(268.6085983831086 243.7288498305279) rotate(0 82.31217956542969 10)"><text x="0" y="0" font-family="Virgil, Segoe UI Emoji" font-size="16px" fill="#000000" text-anchor="start" style="white-space: pre;" direction="ltr" dominant-baseline="text-before-edge">proces add signatory</text></g><g transform="translate(252.6260043561818 286.7398233300329) rotate(0 99.88822174072266 10)"><text x="0" y="0" font-family="Virgil, Segoe UI Emoji" font-size="16px" fill="#000000" text-anchor="start" style="white-space: pre;" direction="ltr" dominant-baseline="text-before-edge">proces insert transaction</text></g><g stroke-linecap="round"><g transform="translate(347.603403447944 322.6436722299642) rotate(0 0 77.48140444642928)"><path d="M0 0 C0 47.66, 0 95.33, 0 154.96 M0 0 C0 52.97, 0 105.93, 0 154.96" stroke="#000000" stroke-width="1" fill="none"></path></g><g transform="translate(347.603403447944 322.6436722299642) rotate(0 0 77.48140444642928)"><path d="M-10.26 126.77 C-7.1 135.44, -3.95 144.11, 0 154.96 M-10.26 126.77 C-6.75 136.41, -3.25 146.04, 0 154.96" stroke="#000000" stroke-width="1" fill="none"></path></g><g transform="translate(347.603403447944 322.6436722299642) rotate(0 0 77.48140444642928)"><path d="M10.26 126.77 C7.1 135.44, 3.95 144.11, 0 154.96 M10.26 126.77 C6.75 136.41, 3.25 146.04, 0 154.96" stroke="#000000" stroke-width="1" fill="none"></path></g></g><mask></mask><g stroke-linecap="round" transform="translate(284.0837115111521 494.1690793399721) rotate(0 68.5 52.91666666666663)"><path d="M0 0 C0 0, 0 0, 0 0 M0 0 C0 0, 0 0, 0 0 M-0.26 6.4 C0.86 5.11, 1.98 3.82, 4.99 0.36 M-0.26 6.4 C1.66 4.19, 3.58 1.98, 4.99 0.36 M0.13 12.04 C2.29 9.56, 4.44 7.08, 10.63 -0.03 M0.13 12.04 C3.35 8.34, 6.57 4.64, 10.63 -0.03 M-0.13 18.44 C4.18 13.48, 8.49 8.52, 15.62 0.33 M-0.13 18.44 C3.89 13.81, 7.91 9.19, 15.62 0.33 M0.27 24.08 C5.21 18.4, 10.14 12.72, 21.26 -0.07 M0.27 24.08 C7.57 15.68, 14.87 7.28, 21.26 -0.07 M0 30.48 C8.32 20.91, 16.63 11.35, 26.25 0.29 M0 30.48 C9.34 19.74, 18.67 9.01, 26.25 0.29 M-0.26 36.88 C9.78 25.34, 19.81 13.8, 31.89 -0.1 M-0.26 36.88 C7.16 28.34, 14.58 19.81, 31.89 -0.1 M0.14 42.52 C12.53 28.26, 24.92 14.01, 36.88 0.26 M0.14 42.52 C9.3 31.98, 18.46 21.44, 36.88 0.26 M-0.12 48.92 C16.43 29.88, 32.98 10.84, 42.52 -0.14 M-0.12 48.92 C15.02 31.49, 30.17 14.07, 42.52 -0.14 M0.27 54.56 C14.22 38.52, 28.17 22.47, 47.51 0.22 M0.27 54.56 C14.62 38.06, 28.96 21.56, 47.51 0.22 M0.01 60.96 C14.96 43.76, 29.91 26.57, 53.15 -0.17 M0.01 60.96 C10.93 48.4, 21.85 35.84, 53.15 -0.17 M-0.25 67.36 C18.23 46.1, 36.71 24.83, 58.14 0.19 M-0.25 67.36 C15.52 49.21, 31.3 31.06, 58.14 0.19 M0.14 73 C17.67 52.84, 35.19 32.68, 63.78 -0.21 M0.14 73 C22.43 47.36, 44.72 21.72, 63.78 -0.21 M-0.12 79.4 C20.04 56.21, 40.19 33.02, 68.77 0.15 M-0.12 79.4 C19.49 56.84, 39.11 34.27, 68.77 0.15 M0.28 85.04 C23.97 57.79, 47.66 30.53, 74.41 -0.24 M0.28 85.04 C18.27 64.34, 36.26 43.64, 74.41 -0.24 M0.01 91.44 C22.28 65.82, 44.55 40.2, 79.4 0.12 M0.01 91.44 C21.25 67.01, 42.49 42.58, 79.4 0.12 M-0.25 97.84 C19.27 75.39, 38.78 52.94, 85.04 -0.28 M-0.25 97.84 C18.54 76.23, 37.32 54.62, 85.04 -0.28 M0.15 103.48 C27.38 72.15, 54.62 40.82, 90.03 0.08 M0.15 103.48 C29.21 70.05, 58.27 36.62, 90.03 0.08 M1.85 107.61 C28.45 77.01, 55.05 46.42, 95.67 -0.31 M1.85 107.61 C30.43 74.74, 59.01 41.86, 95.67 -0.31 M7.5 107.22 C39.96 69.88, 72.41 32.54, 100.66 0.05 M7.5 107.22 C39.27 70.67, 71.04 34.12, 100.66 0.05 M12.48 107.58 C34.06 82.76, 55.63 57.95, 106.3 -0.34 M12.48 107.58 C31.45 85.76, 50.41 63.95, 106.3 -0.34 M18.13 107.18 C52.66 67.46, 87.19 27.74, 111.29 0.02 M18.13 107.18 C54.84 64.95, 91.56 22.71, 111.29 0.02 M23.11 107.54 C49.18 77.56, 75.24 47.58, 116.27 0.38 M23.11 107.54 C51.37 75.04, 79.63 42.53, 116.27 0.38 M28.76 107.15 C55.71 76.14, 82.67 45.13, 121.92 -0.02 M28.76 107.15 C60.46 70.68, 92.16 34.22, 121.92 -0.02 M33.74 107.51 C62.67 74.24, 91.59 40.97, 126.91 0.34 M33.74 107.51 C60.12 77.17, 86.5 46.82, 126.91 0.34 M38.73 107.87 C75.29 65.82, 111.84 23.76, 132.55 -0.05 M38.73 107.87 C59.53 83.94, 80.33 60.02, 132.55 -0.05 M44.37 107.48 C69.06 79.08, 93.75 50.68, 137.54 0.31 M44.37 107.48 C72.41 75.23, 100.44 42.98, 137.54 0.31 M49.36 107.84 C77.71 75.23, 106.05 42.62, 137.27 6.7 M49.36 107.84 C72.65 81.05, 95.93 54.26, 137.27 6.7 M55 107.44 C84.1 73.97, 113.2 40.49, 137.67 12.35 M55 107.44 C71.56 88.39, 88.13 69.34, 137.67 12.35 M59.99 107.8 C83.54 80.71, 107.08 53.63, 137.41 18.74 M59.99 107.8 C81.72 82.81, 103.45 57.81, 137.41 18.74 M65.63 107.41 C83.21 87.18, 100.79 66.96, 137.15 25.14 M65.63 107.41 C87.77 81.95, 109.9 56.49, 137.15 25.14 M70.62 107.77 C91.83 83.37, 113.03 58.98, 137.54 30.79 M70.62 107.77 C88.32 87.41, 106.01 67.06, 137.54 30.79 M76.26 107.37 C93.73 87.28, 111.2 67.19, 137.28 37.18 M76.26 107.37 C90.96 90.47, 105.65 73.57, 137.28 37.18 M81.25 107.73 C98.65 87.72, 116.04 67.71, 137.67 42.83 M81.25 107.73 C103.58 82.05, 125.9 56.37, 137.67 42.83 M86.9 107.34 C100.98 91.13, 115.07 74.93, 137.41 49.22 M86.9 107.34 C101.6 90.42, 116.31 73.5, 137.41 49.22 M91.88 107.7 C109.62 87.3, 127.35 66.9, 137.15 55.62 M91.88 107.7 C102.68 95.28, 113.48 82.86, 137.15 55.62 M97.53 107.3 C109.32 93.73, 121.12 80.16, 137.54 61.27 M97.53 107.3 C107.2 96.17, 116.87 85.05, 137.54 61.27 M102.51 107.66 C111.07 97.82, 119.63 87.97, 137.28 67.66 M102.51 107.66 C114.38 94.01, 126.25 80.36, 137.28 67.66 M108.16 107.27 C116.15 98.07, 124.14 88.88, 137.68 73.31 M108.16 107.27 C118.73 95.11, 129.3 82.95, 137.68 73.31 M113.14 107.63 C120.82 98.8, 128.49 89.97, 137.42 79.7 M113.14 107.63 C118.89 101.02, 124.64 94.4, 137.42 79.7 M118.79 107.23 C122.63 102.81, 126.47 98.39, 137.16 86.1 M118.79 107.23 C125.95 98.99, 133.12 90.74, 137.16 86.1 M123.77 107.59 C126.69 104.23, 129.61 100.87, 137.55 91.74 M123.77 107.59 C127.11 103.76, 130.45 99.92, 137.55 91.74 M129.42 107.2 C132.39 103.77, 135.37 100.35, 137.29 98.14 M129.42 107.2 C132.35 103.83, 135.28 100.46, 137.29 98.14 M134.4 107.56 C135.42 106.39, 136.43 105.22, 137.68 103.79 M134.4 107.56 C135.25 106.58, 136.1 105.61, 137.68 103.79" stroke="#4c6ef5" stroke-width="0.5" fill="none"></path><path d="M0 0 C35.13 0, 70.26 0, 137 0 M0 0 C40.83 0, 81.66 0, 137 0 M137 0 C137 30.72, 137 61.44, 137 105.83 M137 0 C137 22.22, 137 44.45, 137 105.83 M137 105.83 C109.03 105.83, 81.07 105.83, 0 105.83 M137 105.83 C86.23 105.83, 35.45 105.83, 0 105.83 M0 105.83 C0 73.39, 0 40.95, 0 0 M0 105.83 C0 75.27, 0 44.71, 0 0" stroke="#000000" stroke-width="1" fill="none"></path></g><g transform="translate(324.35373867179663 535.0857460066388) rotate(0 28.22997283935547 12)"><text x="28.22997283935547" y="0" font-family="Virgil, Segoe UI Emoji" font-size="20px" fill="#000000" text-anchor="middle" style="white-space: pre;" direction="ltr" dominant-baseline="text-before-edge">Voting</text></g><g stroke-linecap="round"><g transform="translate(483.12111417414127 490.8458456980568) rotate(0 -22.45854617705379 24.25738155253987)"><path d="M0 0 C-17.11 18.48, -34.21 36.95, -44.92 48.51 M0 0 C-11.4 12.31, -22.79 24.62, -44.92 48.51" stroke="#000000" stroke-width="1" fill="none"></path></g><g transform="translate(483.12111417414127 490.8458456980568) rotate(0 -22.45854617705379 24.25738155253987)"><path d="M-33.29 20.86 C-37.72 31.39, -42.15 41.92, -44.92 48.51 M-33.29 20.86 C-36.24 27.88, -39.19 34.89, -44.92 48.51" stroke="#000000" stroke-width="1" fill="none"></path></g><g transform="translate(483.12111417414127 490.8458456980568) rotate(0 -22.45854617705379 24.25738155253987)"><path d="M-18.24 34.8 C-28.4 40.02, -38.56 45.25, -44.92 48.51 M-18.24 34.8 C-25.01 38.28, -31.78 41.76, -44.92 48.51" stroke="#000000" stroke-width="1" fill="none"></path></g></g><mask></mask><g transform="translate(10 494.0747725071333) rotate(0 92.45618438720703 10)"><text x="0" y="0" font-family="Virgil, Segoe UI Emoji" font-size="16px" fill="#000000" text-anchor="start" style="white-space: pre;" direction="ltr" dominant-baseline="text-before-edge">process cancel proposal</text></g><g transform="translate(277.7730547134856 631.9304568004184) rotate(0 72.6241455078125 10)"><text x="0" y="0" font-family="Virgil, Segoe UI Emoji" font-size="16px" fill="#000000" text-anchor="start" style="white-space: pre;" direction="ltr" dominant-baseline="text-before-edge">process cast vote</text></g><g stroke-linecap="round"><g transform="translate(365.8178572033077 743.1308031008773) rotate(0 17.869909943302957 50.87200244102394)"><path d="M0 0 C8.15 23.2, 16.3 46.39, 35.74 101.74 M0 0 C9.08 25.84, 18.16 51.69, 35.74 101.74" stroke="#000000" stroke-width="1" fill="none"></path></g><g transform="translate(365.8178572033077 743.1308031008773) rotate(0 17.869909943302957 50.87200244102394)"><path d="M16.72 78.55 C21.05 83.84, 25.39 89.12, 35.74 101.74 M16.72 78.55 C21.55 84.44, 26.38 90.33, 35.74 101.74" stroke="#000000" stroke-width="1" fill="none"></path></g><g transform="translate(365.8178572033077 743.1308031008773) rotate(0 17.869909943302957 50.87200244102394)"><path d="M36.08 71.75 C36 78.58, 35.92 85.42, 35.74 101.74 M36.08 71.75 C35.99 79.37, 35.91 86.99, 35.74 101.74" stroke="#000000" stroke-width="1" fill="none"></path></g></g><mask></mask><g stroke-linecap="round"><g transform="translate(385.1176530043677 737.616575729146) rotate(0 76.37085606278464 50.57258221600682)"><path d="M0 0 C38.92 25.77, 77.84 51.54, 152.74 101.15 M0 0 C36.9 24.44, 73.81 48.88, 152.74 101.15" stroke="#000000" stroke-width="1" fill="none"></path></g><g transform="translate(385.1176530043677 737.616575729146) rotate(0 76.37085606278464 50.57258221600682)"><path d="M123.57 94.14 C131 95.92, 138.44 97.71, 152.74 101.15 M123.57 94.14 C130.62 95.83, 137.67 97.52, 152.74 101.15" stroke="#000000" stroke-width="1" fill="none"></path></g><g transform="translate(385.1176530043677 737.616575729146) rotate(0 76.37085606278464 50.57258221600682)"><path d="M134.9 77.03 C139.45 83.17, 143.99 89.32, 152.74 101.15 M134.9 77.03 C139.21 82.85, 143.52 88.68, 152.74 101.15" stroke="#000000" stroke-width="1" fill="none"></path></g></g><mask></mask><g stroke-linecap="round" transform="translate(367.8999675614693 855.7820682072477) rotate(0 68.5 52.91666666666674)"><path d="M0 0 C0 0, 0 0, 0 0 M0 0 C0 0, 0 0, 0 0 M-0.26 6.4 C1.36 4.54, 2.97 2.68, 4.99 0.36 M-0.26 6.4 C0.93 5.03, 2.12 3.66, 4.99 0.36 M0.13 12.04 C2.39 9.44, 4.65 6.85, 10.63 -0.03 M0.13 12.04 C2.92 8.83, 5.71 5.62, 10.63 -0.03 M-0.13 18.44 C5.03 12.51, 10.18 6.58, 15.62 0.33 M-0.13 18.44 C3.28 14.52, 6.68 10.6, 15.62 0.33 M0.27 24.08 C8.11 15.06, 15.95 6.04, 21.26 -0.07 M0.27 24.08 C4.96 18.68, 9.66 13.28, 21.26 -0.07 M0 30.48 C7.85 21.45, 15.7 12.43, 26.25 0.29 M0 30.48 C9.54 19.51, 19.08 8.53, 26.25 0.29 M-0.26 36.88 C6.86 28.69, 13.98 20.5, 31.89 -0.1 M-0.26 36.88 C12.13 22.63, 24.51 8.39, 31.89 -0.1 M0.14 42.52 C14.39 26.12, 28.64 9.73, 36.88 0.26 M0.14 42.52 C9.54 31.7, 18.95 20.88, 36.88 0.26 M-0.12 48.92 C13.99 32.68, 28.11 16.44, 42.52 -0.14 M-0.12 48.92 C12.87 33.97, 25.87 19.02, 42.52 -0.14 M0.27 54.56 C10.89 42.35, 21.51 30.13, 47.51 0.22 M0.27 54.56 C17.54 34.7, 34.8 14.84, 47.51 0.22 M0.01 60.96 C12.82 46.23, 25.62 31.49, 53.15 -0.17 M0.01 60.96 C17.09 41.31, 34.17 21.66, 53.15 -0.17 M-0.25 67.36 C17.6 46.83, 35.44 26.29, 58.14 0.19 M-0.25 67.36 C14.25 50.68, 28.74 34, 58.14 0.19 M0.14 73 C16.38 54.32, 32.61 35.65, 63.78 -0.21 M0.14 73 C22.96 46.75, 45.78 20.5, 63.78 -0.21 M-0.12 79.4 C26.91 48.31, 53.93 17.22, 68.77 0.15 M-0.12 79.4 C23.64 52.07, 47.4 24.74, 68.77 0.15 M0.28 85.04 C18.29 64.31, 36.31 43.59, 74.41 -0.24 M0.28 85.04 C24.29 57.41, 48.31 29.78, 74.41 -0.24 M0.01 91.44 C24.79 62.93, 49.57 34.43, 79.4 0.12 M0.01 91.44 C30.2 56.71, 60.39 21.98, 79.4 0.12 M-0.25 97.84 C20.21 74.3, 40.68 50.76, 85.04 -0.28 M-0.25 97.84 C26.18 67.44, 52.6 37.05, 85.04 -0.28 M0.15 103.48 C32.34 66.45, 64.53 29.41, 90.03 0.08 M0.15 103.48 C32.85 65.87, 65.54 28.25, 90.03 0.08 M1.85 107.61 C24.99 81, 48.13 54.38, 95.67 -0.31 M1.85 107.61 C38.68 65.25, 75.51 22.88, 95.67 -0.31 M7.5 107.22 C34.42 76.24, 61.35 45.27, 100.66 0.05 M7.5 107.22 C43.75 65.52, 80 23.82, 100.66 0.05 M12.48 107.58 C34.02 82.8, 55.56 58.02, 106.3 -0.34 M12.48 107.58 C34.35 82.42, 56.22 57.27, 106.3 -0.34 M18.13 107.18 C48.78 71.93, 79.43 36.67, 111.29 0.02 M18.13 107.18 C39.96 82.07, 61.78 56.96, 111.29 0.02 M23.11 107.54 C53.01 73.15, 82.9 38.76, 116.27 0.38 M23.11 107.54 C48.89 77.89, 74.67 48.24, 116.27 0.38 M28.76 107.15 C63.04 67.72, 97.32 28.28, 121.92 -0.02 M28.76 107.15 C62.47 68.37, 96.18 29.59, 121.92 -0.02 M33.74 107.51 C54.08 84.12, 74.41 60.73, 126.91 0.34 M33.74 107.51 C66.63 69.68, 99.51 31.85, 126.91 0.34 M38.73 107.87 C72.64 68.86, 106.55 29.85, 132.55 -0.05 M38.73 107.87 C68.62 73.49, 98.5 39.11, 132.55 -0.05 M44.37 107.48 C80.24 66.21, 116.11 24.95, 137.54 0.31 M44.37 107.48 C70.09 77.89, 95.8 48.31, 137.54 0.31 M49.36 107.84 C78.42 74.4, 107.48 40.97, 137.27 6.7 M49.36 107.84 C78.87 73.89, 108.37 39.95, 137.27 6.7 M55 107.44 C75.68 83.66, 96.35 59.88, 137.67 12.35 M55 107.44 C75.19 84.22, 95.37 61.01, 137.67 12.35 M59.99 107.8 C88.03 75.55, 116.06 43.3, 137.41 18.74 M59.99 107.8 C85.43 78.53, 110.88 49.27, 137.41 18.74 M65.63 107.41 C80.52 90.29, 95.4 73.17, 137.15 25.14 M65.63 107.41 C82.81 87.65, 99.98 67.89, 137.15 25.14 M70.62 107.77 C84.57 91.72, 98.53 75.66, 137.54 30.79 M70.62 107.77 C90.53 84.86, 110.44 61.96, 137.54 30.79 M76.26 107.37 C89.64 91.98, 103.02 76.6, 137.28 37.18 M76.26 107.37 C90.37 91.15, 104.47 74.92, 137.28 37.18 M81.25 107.73 C97.49 89.06, 113.72 70.38, 137.67 42.83 M81.25 107.73 C99.68 86.53, 118.11 65.33, 137.67 42.83 M86.9 107.34 C97.47 95.17, 108.04 83.01, 137.41 49.22 M86.9 107.34 C105.52 85.91, 124.15 64.48, 137.41 49.22 M91.88 107.7 C104.71 92.94, 117.54 78.18, 137.15 55.62 M91.88 107.7 C109.3 87.66, 126.71 67.63, 137.15 55.62 M97.53 107.3 C108.32 94.88, 119.12 82.46, 137.54 61.27 M97.53 107.3 C113.08 89.41, 128.63 71.52, 137.54 61.27 M102.51 107.66 C114.5 93.87, 126.49 80.08, 137.28 67.66 M102.51 107.66 C113.8 94.67, 125.1 81.68, 137.28 67.66 M108.16 107.27 C115.77 98.51, 123.37 89.76, 137.68 73.31 M108.16 107.27 C114.39 100.09, 120.63 92.92, 137.68 73.31 M113.14 107.63 C120.11 99.62, 127.07 91.61, 137.42 79.7 M113.14 107.63 C120.04 99.69, 126.94 91.75, 137.42 79.7 M118.79 107.23 C126.06 98.87, 133.33 90.5, 137.16 86.1 M118.79 107.23 C125.05 100.02, 131.32 92.81, 137.16 86.1 M123.77 107.59 C129.15 101.41, 134.52 95.23, 137.55 91.74 M123.77 107.59 C127.7 103.08, 131.63 98.56, 137.55 91.74 M129.42 107.2 C131.56 104.73, 133.71 102.26, 137.29 98.14 M129.42 107.2 C131.52 104.78, 133.63 102.35, 137.29 98.14 M134.4 107.56 C135.06 106.8, 135.72 106.04, 137.68 103.79 M134.4 107.56 C135.17 106.68, 135.93 105.8, 137.68 103.79" stroke="#4c6ef5" stroke-width="0.5" fill="none"></path><path d="M0 0 C31.77 0, 63.54 0, 137 0 M0 0 C31.74 0, 63.49 0, 137 0 M137 0 C137 41.89, 137 83.78, 137 105.83 M137 0 C137 41.63, 137 83.25, 137 105.83 M137 105.83 C95.51 105.83, 54.03 105.83, 0 105.83 M137 105.83 C100.91 105.83, 64.82 105.83, 0 105.83 M0 105.83 C0 69.62, 0 33.4, 0 0 M0 105.83 C0 74.92, 0 44.01, 0 0" stroke="#000000" stroke-width="1" fill="none"></path></g><g transform="translate(389.3200191361763 896.6987348739144) rotate(0 47.07994842529297 12)"><text x="47.07994842529297" y="0" font-family="Virgil, Segoe UI Emoji" font-size="20px" fill="#000000" text-anchor="middle" style="white-space: pre;" direction="ltr" dominant-baseline="text-before-edge">Defeated</text></g><g stroke-linecap="round" transform="translate(537.7381706107965 857.98775915594) rotate(0 68.5 52.91666666666674)"><path d="M0 0 C0 0, 0 0, 0 0 M0 0 C0 0, 0 0, 0 0 M-0.26 6.4 C0.86 5.1, 1.99 3.81, 4.99 0.36 M-0.26 6.4 C1.5 4.37, 3.26 2.35, 4.99 0.36 M0.13 12.04 C3.25 8.45, 6.37 4.87, 10.63 -0.03 M0.13 12.04 C2.95 8.8, 5.77 5.55, 10.63 -0.03 M-0.13 18.44 C5.31 12.19, 10.74 5.93, 15.62 0.33 M-0.13 18.44 C6.04 11.34, 12.22 4.24, 15.62 0.33 M0.27 24.08 C4.61 19.08, 8.96 14.08, 21.26 -0.07 M0.27 24.08 C8.4 14.73, 16.53 5.38, 21.26 -0.07 M0 30.48 C8.8 20.36, 17.6 10.24, 26.25 0.29 M0 30.48 C7.32 22.07, 14.63 13.66, 26.25 0.29 M-0.26 36.88 C10.76 24.21, 21.77 11.54, 31.89 -0.1 M-0.26 36.88 C11.86 22.94, 23.98 9, 31.89 -0.1 M0.14 42.52 C13.31 27.36, 26.49 12.2, 36.88 0.26 M0.14 42.52 C8.34 33.08, 16.55 23.64, 36.88 0.26 M-0.12 48.92 C16.32 30, 32.77 11.07, 42.52 -0.14 M-0.12 48.92 C14.08 32.58, 28.28 16.25, 42.52 -0.14 M0.27 54.56 C12.33 40.69, 24.39 26.82, 47.51 0.22 M0.27 54.56 C16.27 36.15, 32.28 17.74, 47.51 0.22 M0.01 60.96 C20.42 37.48, 40.83 14, 53.15 -0.17 M0.01 60.96 C17.82 40.48, 35.62 19.99, 53.15 -0.17 M-0.25 67.36 C19.05 45.15, 38.36 22.94, 58.14 0.19 M-0.25 67.36 C12.69 52.47, 25.63 37.59, 58.14 0.19 M0.14 73 C22.48 47.3, 44.83 21.6, 63.78 -0.21 M0.14 73 C15.87 54.91, 31.6 36.82, 63.78 -0.21 M-0.12 79.4 C24.39 51.2, 48.91 23, 68.77 0.15 M-0.12 79.4 C24.21 51.42, 48.53 23.44, 68.77 0.15 M0.28 85.04 C19.97 62.39, 39.66 39.74, 74.41 -0.24 M0.28 85.04 C23.82 57.96, 47.36 30.88, 74.41 -0.24 M0.01 91.44 C29.2 57.86, 58.39 24.28, 79.4 0.12 M0.01 91.44 C23.74 64.15, 47.46 36.86, 79.4 0.12 M-0.25 97.84 C22.98 71.12, 46.2 44.41, 85.04 -0.28 M-0.25 97.84 C32.09 60.64, 64.43 23.44, 85.04 -0.28 M0.15 103.48 C24.29 75.71, 48.43 47.93, 90.03 0.08 M0.15 103.48 C27.89 71.56, 55.64 39.64, 90.03 0.08 M1.85 107.61 C28.24 77.25, 54.64 46.9, 95.67 -0.31 M1.85 107.61 C25.22 80.74, 48.58 53.86, 95.67 -0.31 M7.5 107.22 C28.6 82.94, 49.71 58.66, 100.66 0.05 M7.5 107.22 C37.04 73.24, 66.58 39.26, 100.66 0.05 M12.48 107.58 C47.05 67.81, 81.62 28.04, 106.3 -0.34 M12.48 107.58 C43.33 72.1, 74.17 36.62, 106.3 -0.34 M18.13 107.18 C43.77 77.69, 69.41 48.19, 111.29 0.02 M18.13 107.18 C50.05 70.46, 81.97 33.74, 111.29 0.02 M23.11 107.54 C58.08 67.32, 93.04 27.1, 116.27 0.38 M23.11 107.54 C42.13 85.67, 61.15 63.79, 116.27 0.38 M28.76 107.15 C57.99 73.52, 87.23 39.88, 121.92 -0.02 M28.76 107.15 C55.64 76.23, 82.52 45.3, 121.92 -0.02 M33.74 107.51 C62.51 74.41, 91.28 41.32, 126.91 0.34 M33.74 107.51 C56.61 81.2, 79.48 54.9, 126.91 0.34 M38.73 107.87 C67.56 74.7, 96.39 41.54, 132.55 -0.05 M38.73 107.87 C70.83 70.94, 102.93 34.02, 132.55 -0.05 M44.37 107.48 C76.21 70.85, 108.05 34.23, 137.54 0.31 M44.37 107.48 C63.7 85.25, 83.02 63.02, 137.54 0.31 M49.36 107.84 C74.52 78.9, 99.67 49.96, 137.27 6.7 M49.36 107.84 C82.35 69.88, 115.35 31.93, 137.27 6.7 M55 107.44 C72.56 87.24, 90.12 67.04, 137.67 12.35 M55 107.44 C73.93 85.67, 92.85 63.9, 137.67 12.35 M59.99 107.8 C86.82 76.94, 113.64 46.08, 137.41 18.74 M59.99 107.8 C86.64 77.15, 113.28 46.49, 137.41 18.74 M65.63 107.41 C81.71 88.91, 97.78 70.42, 137.15 25.14 M65.63 107.41 C82.33 88.2, 99.03 68.99, 137.15 25.14 M70.62 107.77 C87.36 88.51, 104.1 69.25, 137.54 30.79 M70.62 107.77 C89.99 85.48, 109.36 63.2, 137.54 30.79 M76.26 107.37 C91.42 89.93, 106.58 72.5, 137.28 37.18 M76.26 107.37 C96.33 84.29, 116.39 61.22, 137.28 37.18 M81.25 107.73 C93.92 93.16, 106.58 78.59, 137.67 42.83 M81.25 107.73 C100.21 85.93, 119.16 64.12, 137.67 42.83 M86.9 107.34 C102.99 88.82, 119.08 70.31, 137.41 49.22 M86.9 107.34 C97.35 95.31, 107.81 83.28, 137.41 49.22 M91.88 107.7 C108.29 88.82, 124.7 69.94, 137.15 55.62 M91.88 107.7 C105.15 92.43, 118.42 77.17, 137.15 55.62 M97.53 107.3 C106.97 96.44, 116.41 85.57, 137.54 61.27 M97.53 107.3 C111.32 91.44, 125.11 75.57, 137.54 61.27 M102.51 107.66 C110.26 98.75, 118.01 89.83, 137.28 67.66 M102.51 107.66 C111.36 97.48, 120.21 87.3, 137.28 67.66 M108.16 107.27 C119 94.8, 129.84 82.33, 137.68 73.31 M108.16 107.27 C114.13 100.39, 120.11 93.51, 137.68 73.31 M113.14 107.63 C118.72 101.21, 124.3 94.79, 137.42 79.7 M113.14 107.63 C122.81 96.5, 132.48 85.38, 137.42 79.7 M118.79 107.23 C123.27 102.07, 127.76 96.91, 137.16 86.1 M118.79 107.23 C122.94 102.46, 127.09 97.68, 137.16 86.1 M123.77 107.59 C127.54 103.26, 131.3 98.93, 137.55 91.74 M123.77 107.59 C129.1 101.46, 134.44 95.32, 137.55 91.74 M129.42 107.2 C132.29 103.89, 135.16 100.59, 137.29 98.14 M129.42 107.2 C131.34 104.98, 133.27 102.77, 137.29 98.14 M134.4 107.56 C135.42 106.39, 136.43 105.23, 137.68 103.79 M134.4 107.56 C135.61 106.17, 136.81 104.79, 137.68 103.79" stroke="#4c6ef5" stroke-width="0.5" fill="none"></path><path d="M0 0 C52.52 0, 105.03 0, 137 0 M0 0 C48.25 0, 96.5 0, 137 0 M137 0 C137 38.13, 137 76.27, 137 105.83 M137 0 C137 23.53, 137 47.05, 137 105.83 M137 105.83 C102.32 105.83, 67.63 105.83, 0 105.83 M137 105.83 C84.2 105.83, 31.4 105.83, 0 105.83 M0 105.83 C0 81.12, 0 56.4, 0 0 M0 105.83 C0 67.17, 0 28.5, 0 0" stroke="#000000" stroke-width="1" fill="none"></path></g><g transform="translate(556.648220049273 898.9044258226068) rotate(0 49.58995056152344 12)"><text x="49.58995056152344" y="0" font-family="Virgil, Segoe UI Emoji" font-size="20px" fill="#000000" text-anchor="middle" style="white-space: pre;" direction="ltr" dominant-baseline="text-before-edge">Succeeded</text></g><g transform="translate(518.1741884621363 983.7381631168823) rotate(0 112.76823425292969 10)"><text x="0" y="0" font-family="Virgil, Segoe UI Emoji" font-size="16px" fill="#000000" text-anchor="start" style="white-space: pre;" direction="ltr" dominant-baseline="text-before-edge">process execute transaction</text></g><g stroke-linecap="round" transform="translate(438.0991507657089 1140.2698606402253) rotate(0 72 53)"><path d="M0 0 C0 0, 0 0, 0 0 M0 0 C0 0, 0 0, 0 0 M-0.26 6.4 C0.95 5, 2.17 3.6, 4.99 0.36 M-0.26 6.4 C1.2 4.71, 2.67 3.03, 4.99 0.36 M0.13 12.04 C4.23 7.33, 8.32 2.62, 10.63 -0.03 M0.13 12.04 C2.24 9.61, 4.35 7.19, 10.63 -0.03 M-0.13 18.44 C3.53 14.23, 7.18 10.03, 15.62 0.33 M-0.13 18.44 C5.69 11.75, 11.51 5.05, 15.62 0.33 M0.27 24.08 C8.28 14.86, 16.3 5.64, 21.26 -0.07 M0.27 24.08 C6.13 17.33, 12 10.58, 21.26 -0.07 M0 30.48 C7.53 21.82, 15.06 13.16, 26.25 0.29 M0 30.48 C5.37 24.3, 10.74 18.13, 26.25 0.29 M-0.26 36.88 C11.41 23.45, 23.08 10.03, 31.89 -0.1 M-0.26 36.88 C11.12 23.79, 22.49 10.71, 31.89 -0.1 M0.14 42.52 C12.54 28.25, 24.95 13.98, 36.88 0.26 M0.14 42.52 C8.5 32.9, 16.86 23.28, 36.88 0.26 M-0.12 48.92 C16.64 29.63, 33.41 10.34, 42.52 -0.14 M-0.12 48.92 C15.85 30.54, 31.82 12.17, 42.52 -0.14 M0.27 54.56 C14.97 37.65, 29.67 20.74, 47.51 0.22 M0.27 54.56 C16.67 35.69, 33.07 16.83, 47.51 0.22 M0.01 60.96 C11.48 47.76, 22.96 34.56, 53.15 -0.17 M0.01 60.96 C13.74 45.16, 27.47 29.37, 53.15 -0.17 M-0.25 67.36 C18.33 45.98, 36.92 24.6, 58.14 0.19 M-0.25 67.36 C19.46 44.68, 39.17 22.01, 58.14 0.19 M0.14 73 C16.65 54.02, 33.15 35.03, 63.78 -0.21 M0.14 73 C18.42 51.97, 36.7 30.95, 63.78 -0.21 M-0.12 79.4 C17.39 59.25, 34.91 39.11, 68.77 0.15 M-0.12 79.4 C16.32 60.48, 32.77 41.57, 68.77 0.15 M0.28 85.04 C17.76 64.93, 35.25 44.81, 74.41 -0.24 M0.28 85.04 C23.17 58.7, 46.07 32.36, 74.41 -0.24 M0.01 91.44 C31.66 55.03, 63.31 18.63, 79.4 0.12 M0.01 91.44 C28.28 58.93, 56.54 26.41, 79.4 0.12 M-0.25 97.84 C28.95 64.25, 58.15 30.66, 85.04 -0.28 M-0.25 97.84 C28.46 64.82, 57.16 31.8, 85.04 -0.28 M0.15 103.48 C19.53 81.19, 38.9 58.9, 90.03 0.08 M0.15 103.48 C23.58 76.52, 47.02 49.56, 90.03 0.08 M1.85 107.61 C26.24 79.56, 50.63 51.5, 95.67 -0.31 M1.85 107.61 C34.63 69.91, 67.4 32.21, 95.67 -0.31 M6.84 107.97 C40 69.83, 73.15 31.69, 100.66 0.05 M6.84 107.97 C43.39 65.92, 79.95 23.88, 100.66 0.05 M12.48 107.58 C45.72 69.34, 78.96 31.1, 106.3 -0.34 M12.48 107.58 C39.86 76.09, 67.23 44.61, 106.3 -0.34 M17.47 107.94 C40.45 81.51, 63.42 55.08, 111.29 0.02 M17.47 107.94 C40.46 81.5, 63.44 55.05, 111.29 0.02 M23.11 107.54 C48.76 78.04, 74.41 48.53, 116.27 0.38 M23.11 107.54 C48.64 78.18, 74.17 48.81, 116.27 0.38 M28.1 107.9 C56.92 74.75, 85.74 41.6, 121.92 -0.02 M28.1 107.9 C65.16 65.28, 102.21 22.65, 121.92 -0.02 M33.74 107.51 C67.03 69.21, 100.32 30.92, 126.91 0.34 M33.74 107.51 C68.39 67.65, 103.04 27.79, 126.91 0.34 M38.73 107.87 C70.79 70.99, 102.85 34.11, 132.55 -0.05 M38.73 107.87 C64.35 78.4, 89.97 48.92, 132.55 -0.05 M44.37 107.48 C64.78 84, 85.19 60.52, 137.54 0.31 M44.37 107.48 C65.52 83.15, 86.67 58.82, 137.54 0.31 M49.36 107.84 C80.74 71.73, 112.13 35.63, 143.18 -0.09 M49.36 107.84 C84.89 66.96, 120.42 26.09, 143.18 -0.09 M55 107.44 C88.16 69.3, 121.31 31.16, 146.2 2.54 M55 107.44 C77.46 81.61, 99.92 55.77, 146.2 2.54 M59.99 107.8 C82.14 82.32, 104.28 56.85, 146.59 8.18 M59.99 107.8 C83.95 80.24, 107.91 52.67, 146.59 8.18 M65.63 107.41 C96.16 72.29, 126.69 37.17, 146.33 14.58 M65.63 107.41 C81.97 88.62, 98.3 69.82, 146.33 14.58 M70.62 107.77 C90.41 85, 110.2 62.23, 146.72 20.22 M70.62 107.77 C100.87 72.97, 131.13 38.16, 146.72 20.22 M76.26 107.37 C99.79 80.31, 123.31 53.25, 146.46 26.62 M76.26 107.37 C92.68 88.49, 109.1 69.6, 146.46 26.62 M81.25 107.73 C99.86 86.33, 118.46 64.92, 146.2 33.02 M81.25 107.73 C96.67 90, 112.09 72.26, 146.2 33.02 M86.9 107.34 C110.19 80.54, 133.48 53.75, 146.6 38.66 M86.9 107.34 C101.49 90.55, 116.08 73.76, 146.6 38.66 M91.88 107.7 C105.95 91.51, 120.02 75.32, 146.34 45.06 M91.88 107.7 C111.38 85.27, 130.87 62.85, 146.34 45.06 M97.53 107.3 C116.42 85.57, 135.31 63.83, 146.73 50.7 M97.53 107.3 C112.48 90.1, 127.43 72.91, 146.73 50.7 M102.51 107.66 C114.98 93.32, 127.44 78.98, 146.47 57.1 M102.51 107.66 C119.52 88.1, 136.52 68.54, 146.47 57.1 M108.16 107.27 C117.35 96.69, 126.55 86.11, 146.21 63.49 M108.16 107.27 C117.56 96.45, 126.97 85.63, 146.21 63.49 M113.14 107.63 C121.65 97.85, 130.15 88.06, 146.6 69.14 M113.14 107.63 C120.4 99.28, 127.65 90.94, 146.6 69.14 M118.13 107.99 C128.64 95.9, 139.14 83.82, 146.34 75.54 M118.13 107.99 C125.9 99.05, 133.67 90.11, 146.34 75.54 M123.77 107.59 C129.44 101.08, 135.1 94.56, 146.73 81.18 M123.77 107.59 C128.52 102.13, 133.26 96.67, 146.73 81.18 M128.76 107.95 C133.54 102.45, 138.32 96.95, 146.47 87.58 M128.76 107.95 C135.04 100.72, 141.33 93.49, 146.47 87.58 M134.4 107.56 C138.2 103.19, 142.01 98.81, 146.21 93.97 M134.4 107.56 C138.9 102.39, 143.39 97.22, 146.21 93.97 M139.39 107.92 C141.64 105.33, 143.9 102.73, 146.61 99.62 M139.39 107.92 C140.96 106.11, 142.53 104.31, 146.61 99.62" stroke="#4c6ef5" stroke-width="0.5" fill="none"></path><path d="M0 0 C32.37 0, 64.74 0, 144 0 M0 0 C45.44 0, 90.87 0, 144 0 M144 0 C144 36.66, 144 73.32, 144 106 M144 0 C144 30.7, 144 61.4, 144 106 M144 106 C92.16 106, 40.33 106, 0 106 M144 106 C107.18 106, 70.35 106, 0 106 M0 106 C0 71.31, 0 36.62, 0 0 M0 106 C0 68.2, 0 30.4, 0 0" stroke="#000000" stroke-width="1" fill="none"></path></g><g transform="translate(443.80922614412685 1169.2698606402253) rotate(0 66.28992462158203 24)"><text x="66.28992462158203" y="0" font-family="Virgil, Segoe UI Emoji" font-size="20px" fill="#000000" text-anchor="middle" style="white-space: pre;" direction="ltr" dominant-baseline="text-before-edge">ExecutingWith</text><text x="66.28992462158203" y="24" font-family="Virgil, Segoe UI Emoji" font-size="20px" fill="#000000" text-anchor="middle" style="white-space: pre;" direction="ltr" dominant-baseline="text-before-edge">Errors</text></g><g stroke-linecap="round"><g transform="translate(604.8596137678637 1020.6167666172707) rotate(0 -23.98692614593284 48.01298063191996)"><path d="M0 0 C-18.21 36.44, -36.41 72.89, -47.97 96.03 M0 0 C-17.68 35.38, -35.35 70.76, -47.97 96.03" stroke="#000000" stroke-width="1" fill="none"></path></g><g transform="translate(604.8596137678637 1020.6167666172707) rotate(0 -23.98692614593284 48.01298063191996)"><path d="M-44.55 66.22 C-45.85 77.53, -47.15 88.84, -47.97 96.03 M-44.55 66.22 C-45.81 77.2, -47.07 88.19, -47.97 96.03" stroke="#000000" stroke-width="1" fill="none"></path></g><g transform="translate(604.8596137678637 1020.6167666172707) rotate(0 -23.98692614593284 48.01298063191996)"><path d="M-26.2 75.39 C-34.46 83.22, -42.73 91.05, -47.97 96.03 M-26.2 75.39 C-34.22 83, -42.24 90.6, -47.97 96.03" stroke="#000000" stroke-width="1" fill="none"></path></g></g><mask></mask><g stroke-linecap="round"><g transform="translate(619.7480276715385 1018.6859222358532) rotate(0 22.561791942632112 48.97840282262871)"><path d="M0 0 C11.35 24.64, 22.7 49.28, 45.12 97.96 M0 0 C9.29 20.18, 18.59 40.36, 45.12 97.96" stroke="#000000" stroke-width="1" fill="none"></path></g><g transform="translate(619.7480276715385 1018.6859222358532) rotate(0 22.561791942632112 48.97840282262871)"><path d="M24.01 76.64 C29.32 82.01, 34.63 87.37, 45.12 97.96 M24.01 76.64 C28.36 81.03, 32.71 85.42, 45.12 97.96" stroke="#000000" stroke-width="1" fill="none"></path></g><g transform="translate(619.7480276715385 1018.6859222358532) rotate(0 22.561791942632112 48.97840282262871)"><path d="M42.65 68.06 C43.27 75.58, 43.89 83.1, 45.12 97.96 M42.65 68.06 C43.16 74.22, 43.67 80.38, 45.12 97.96" stroke="#000000" stroke-width="1" fill="none"></path></g></g><mask></mask><g stroke-linecap="round" transform="translate(640.4062162986236 1187.4415331904331) rotate(0 68.5 52.91666666666674)"><path d="M0 0 C0 0, 0 0, 0 0 M0 0 C0 0, 0 0, 0 0 M-0.26 6.4 C1.44 4.44, 3.15 2.47, 4.99 0.36 M-0.26 6.4 C1.78 4.05, 3.83 1.69, 4.99 0.36 M0.13 12.04 C3 8.74, 5.87 5.45, 10.63 -0.03 M0.13 12.04 C2.55 9.26, 4.96 6.49, 10.63 -0.03 M-0.13 18.44 C5.48 11.99, 11.08 5.54, 15.62 0.33 M-0.13 18.44 C4.16 13.51, 8.44 8.58, 15.62 0.33 M0.27 24.08 C7.12 16.2, 13.97 8.32, 21.26 -0.07 M0.27 24.08 C7.63 15.61, 15 7.14, 21.26 -0.07 M0 30.48 C8.47 20.74, 16.94 10.99, 26.25 0.29 M0 30.48 C8.33 20.9, 16.66 11.32, 26.25 0.29 M-0.26 36.88 C6.64 28.94, 13.54 21, 31.89 -0.1 M-0.26 36.88 C12.47 22.23, 25.2 7.59, 31.89 -0.1 M0.14 42.52 C12.82 27.93, 25.5 13.34, 36.88 0.26 M0.14 42.52 C12.63 28.15, 25.12 13.78, 36.88 0.26 M-0.12 48.92 C11.63 35.4, 23.38 21.88, 42.52 -0.14 M-0.12 48.92 C16.43 29.88, 32.98 10.83, 42.52 -0.14 M0.27 54.56 C15.77 36.73, 31.27 18.9, 47.51 0.22 M0.27 54.56 C10.7 42.57, 21.12 30.57, 47.51 0.22 M0.01 60.96 C17.59 40.73, 35.17 20.51, 53.15 -0.17 M0.01 60.96 C16.79 41.65, 33.57 22.35, 53.15 -0.17 M-0.25 67.36 C20.8 43.14, 41.85 18.93, 58.14 0.19 M-0.25 67.36 C17.59 46.83, 35.44 26.3, 58.14 0.19 M0.14 73 C18.39 52.01, 36.64 31.01, 63.78 -0.21 M0.14 73 C21.32 48.64, 42.5 24.28, 63.78 -0.21 M-0.12 79.4 C21.63 54.38, 43.38 29.36, 68.77 0.15 M-0.12 79.4 C14.1 63.04, 28.32 46.68, 68.77 0.15 M0.28 85.04 C25.03 56.57, 49.77 28.1, 74.41 -0.24 M0.28 85.04 C26.87 54.45, 53.46 23.86, 74.41 -0.24 M0.01 91.44 C19.98 68.47, 39.95 45.5, 79.4 0.12 M0.01 91.44 C15.94 73.12, 31.86 54.8, 79.4 0.12 M-0.25 97.84 C29.35 63.79, 58.95 29.74, 85.04 -0.28 M-0.25 97.84 C23.52 70.49, 47.3 43.14, 85.04 -0.28 M0.15 103.48 C19.03 81.76, 37.92 60.03, 90.03 0.08 M0.15 103.48 C20.92 79.58, 41.69 55.69, 90.03 0.08 M1.85 107.61 C28.66 76.78, 55.46 45.94, 95.67 -0.31 M1.85 107.61 C34.1 70.52, 66.35 33.42, 95.67 -0.31 M7.5 107.22 C27.8 83.86, 48.1 60.51, 100.66 0.05 M7.5 107.22 C36.06 74.36, 64.63 41.5, 100.66 0.05 M12.48 107.58 C49.41 65.11, 86.33 22.63, 106.3 -0.34 M12.48 107.58 C47.21 67.63, 81.94 27.68, 106.3 -0.34 M18.13 107.18 C44.76 76.54, 71.4 45.91, 111.29 0.02 M18.13 107.18 C46.2 74.89, 74.28 42.59, 111.29 0.02 M23.11 107.54 C60.25 64.83, 97.38 22.11, 116.27 0.38 M23.11 107.54 C54.8 71.1, 86.48 34.65, 116.27 0.38 M28.76 107.15 C48.25 84.72, 67.75 62.29, 121.92 -0.02 M28.76 107.15 C61.86 69.07, 94.96 31, 121.92 -0.02 M33.74 107.51 C62.93 73.93, 92.12 40.35, 126.91 0.34 M33.74 107.51 C52.49 85.94, 71.24 64.37, 126.91 0.34 M38.73 107.87 C73.23 68.19, 107.72 28.5, 132.55 -0.05 M38.73 107.87 C64.43 78.31, 90.12 48.75, 132.55 -0.05 M44.37 107.48 C66.23 82.34, 88.08 57.2, 137.54 0.31 M44.37 107.48 C69.24 78.87, 94.11 50.26, 137.54 0.31 M49.36 107.84 C77.95 74.95, 106.54 42.06, 137.27 6.7 M49.36 107.84 C78.22 74.64, 107.08 41.44, 137.27 6.7 M55 107.44 C83.4 74.77, 111.8 42.11, 137.67 12.35 M55 107.44 C72.87 86.89, 90.73 66.34, 137.67 12.35 M59.99 107.8 C77.81 87.31, 95.62 66.81, 137.41 18.74 M59.99 107.8 C79.75 85.07, 99.51 62.34, 137.41 18.74 M65.63 107.41 C87.5 82.25, 109.37 57.1, 137.15 25.14 M65.63 107.41 C86.61 83.27, 107.59 59.14, 137.15 25.14 M70.62 107.77 C85.03 91.19, 99.43 74.62, 137.54 30.79 M70.62 107.77 C87.83 87.97, 105.05 68.17, 137.54 30.79 M76.26 107.37 C92.81 88.33, 109.36 69.29, 137.28 37.18 M76.26 107.37 C95.11 85.69, 113.96 64.01, 137.28 37.18 M81.25 107.73 C103.7 81.91, 126.14 56.09, 137.67 42.83 M81.25 107.73 C92.66 94.61, 104.06 81.49, 137.67 42.83 M86.9 107.34 C100.75 91.4, 114.61 75.46, 137.41 49.22 M86.9 107.34 C98.95 93.47, 111 79.61, 137.41 49.22 M91.88 107.7 C104.52 93.16, 117.16 78.62, 137.15 55.62 M91.88 107.7 C102.01 96.05, 112.14 84.4, 137.15 55.62 M97.53 107.3 C106.87 96.55, 116.22 85.79, 137.54 61.27 M97.53 107.3 C106.48 97, 115.43 86.7, 137.54 61.27 M102.51 107.66 C114.52 93.85, 126.52 80.04, 137.28 67.66 M102.51 107.66 C113.68 94.81, 124.85 81.97, 137.28 67.66 M108.16 107.27 C118.55 95.31, 128.95 83.34, 137.68 73.31 M108.16 107.27 C119.13 94.65, 130.1 82.03, 137.68 73.31 M113.14 107.63 C119.61 100.19, 126.08 92.75, 137.42 79.7 M113.14 107.63 C121.87 97.59, 130.59 87.55, 137.42 79.7 M118.79 107.23 C124.62 100.52, 130.46 93.81, 137.16 86.1 M118.79 107.23 C125.3 99.74, 131.82 92.24, 137.16 86.1 M123.77 107.59 C127.87 102.88, 131.96 98.17, 137.55 91.74 M123.77 107.59 C127.48 103.33, 131.19 99.06, 137.55 91.74 M129.42 107.2 C131.79 104.47, 134.17 101.73, 137.29 98.14 M129.42 107.2 C131.08 105.28, 132.75 103.36, 137.29 98.14 M134.4 107.56 C135.31 106.51, 136.22 105.47, 137.68 103.79 M134.4 107.56 C135.21 106.63, 136.02 105.7, 137.68 103.79" stroke="#4c6ef5" stroke-width="0.5" fill="none"></path><path d="M0 0 C29.49 0, 58.99 0, 137 0 M0 0 C37.15 0, 74.3 0, 137 0 M137 0 C137 32.82, 137 65.63, 137 105.83 M137 0 C137 40.31, 137 80.63, 137 105.83 M137 105.83 C89.86 105.83, 42.72 105.83, 0 105.83 M137 105.83 C96.06 105.83, 55.12 105.83, 0 105.83 M0 105.83 C0 74.78, 0 43.73, 0 0 M0 105.83 C0 71.92, 0 38.01, 0 0" stroke="#000000" stroke-width="1" fill="none"></path></g><g transform="translate(660.7562681785064 1228.3581998570999) rotate(0 48.14994812011719 12)"><text x="48.14994812011719" y="0" font-family="Virgil, Segoe UI Emoji" font-size="20px" fill="#000000" text-anchor="middle" style="white-space: pre;" direction="ltr" dominant-baseline="text-before-edge">Completed</text></g><g stroke-linecap="round" transform="translate(209.22151947341416 854.7995494512049) rotate(0 68.5 52.91666666666674)"><path d="M0 0 C0 0, 0 0, 0 0 M0 0 C0 0, 0 0, 0 0 M-0.26 6.4 C1.72 4.12, 3.7 1.85, 4.99 0.36 M-0.26 6.4 C1.5 4.37, 3.26 2.34, 4.99 0.36 M0.13 12.04 C4.24 7.32, 8.35 2.59, 10.63 -0.03 M0.13 12.04 C3.29 8.41, 6.44 4.78, 10.63 -0.03 M-0.13 18.44 C3.64 14.1, 7.41 9.77, 15.62 0.33 M-0.13 18.44 C4.76 12.81, 9.65 7.19, 15.62 0.33 M0.27 24.08 C7.25 16.05, 14.23 8.01, 21.26 -0.07 M0.27 24.08 C7.71 15.52, 15.15 6.96, 21.26 -0.07 M0 30.48 C6.4 23.13, 12.79 15.78, 26.25 0.29 M0 30.48 C6.89 22.56, 13.77 14.64, 26.25 0.29 M-0.26 36.88 C7.77 27.64, 15.8 18.4, 31.89 -0.1 M-0.26 36.88 C8.18 27.17, 16.62 17.47, 31.89 -0.1 M0.14 42.52 C10.36 30.76, 20.59 18.99, 36.88 0.26 M0.14 42.52 C12.52 28.28, 24.9 14.04, 36.88 0.26 M-0.12 48.92 C10.49 36.71, 21.09 24.51, 42.52 -0.14 M-0.12 48.92 C16.02 30.35, 32.16 11.78, 42.52 -0.14 M0.27 54.56 C10.53 42.76, 20.79 30.95, 47.51 0.22 M0.27 54.56 C16.63 35.74, 32.99 16.93, 47.51 0.22 M0.01 60.96 C17.02 41.39, 34.04 21.81, 53.15 -0.17 M0.01 60.96 C11.82 47.37, 23.64 33.78, 53.15 -0.17 M-0.25 67.36 C18.32 46, 36.88 24.64, 58.14 0.19 M-0.25 67.36 C21.22 42.66, 42.69 17.96, 58.14 0.19 M0.14 73 C21.71 48.19, 43.28 23.37, 63.78 -0.21 M0.14 73 C17.9 52.58, 35.65 32.15, 63.78 -0.21 M-0.12 79.4 C15.23 61.74, 30.57 44.09, 68.77 0.15 M-0.12 79.4 C23.59 52.12, 47.3 24.84, 68.77 0.15 M0.28 85.04 C19.88 62.49, 39.48 39.94, 74.41 -0.24 M0.28 85.04 C29.88 50.98, 59.49 16.92, 74.41 -0.24 M0.01 91.44 C28.44 58.74, 56.86 26.05, 79.4 0.12 M0.01 91.44 C22.6 65.46, 45.18 39.48, 79.4 0.12 M-0.25 97.84 C28.78 64.45, 57.8 31.06, 85.04 -0.28 M-0.25 97.84 C33.86 58.6, 67.97 19.36, 85.04 -0.28 M0.15 103.48 C30.23 68.87, 60.31 34.27, 90.03 0.08 M0.15 103.48 C23.76 76.32, 47.37 49.15, 90.03 0.08 M1.85 107.61 C29.5 75.81, 57.15 44, 95.67 -0.31 M1.85 107.61 C26.5 79.26, 51.15 50.9, 95.67 -0.31 M7.5 107.22 C39.92 69.92, 72.34 32.63, 100.66 0.05 M7.5 107.22 C27.89 83.76, 48.28 60.3, 100.66 0.05 M12.48 107.58 C44.38 70.88, 76.28 34.19, 106.3 -0.34 M12.48 107.58 C43.96 71.37, 75.43 35.16, 106.3 -0.34 M18.13 107.18 C53.31 66.72, 88.49 26.25, 111.29 0.02 M18.13 107.18 C51.52 68.77, 84.92 30.35, 111.29 0.02 M23.11 107.54 C57.87 67.56, 92.62 27.58, 116.27 0.38 M23.11 107.54 C54 72.01, 84.89 36.48, 116.27 0.38 M28.76 107.15 C64.86 65.62, 100.97 24.08, 121.92 -0.02 M28.76 107.15 C61.61 69.36, 94.46 31.57, 121.92 -0.02 M33.74 107.51 C68.69 67.31, 103.63 27.12, 126.91 0.34 M33.74 107.51 C64.47 72.16, 95.2 36.81, 126.91 0.34 M38.73 107.87 C69.33 72.67, 99.93 37.47, 132.55 -0.05 M38.73 107.87 C70.45 71.38, 102.17 34.89, 132.55 -0.05 M44.37 107.48 C64.09 84.79, 83.81 62.11, 137.54 0.31 M44.37 107.48 C79.31 67.29, 114.24 27.1, 137.54 0.31 M49.36 107.84 C78.05 74.84, 106.73 41.84, 137.27 6.7 M49.36 107.84 C77.26 75.75, 105.15 43.66, 137.27 6.7 M55 107.44 C74.24 85.31, 93.47 63.19, 137.67 12.35 M55 107.44 C77.91 81.09, 100.82 54.73, 137.67 12.35 M59.99 107.8 C83.6 80.64, 107.21 53.48, 137.41 18.74 M59.99 107.8 C87.72 75.9, 115.46 44, 137.41 18.74 M65.63 107.41 C85.12 84.99, 104.61 62.57, 137.15 25.14 M65.63 107.41 C80.81 89.95, 95.98 72.5, 137.15 25.14 M70.62 107.77 C94.97 79.76, 119.31 51.76, 137.54 30.79 M70.62 107.77 C97.02 77.39, 123.43 47.02, 137.54 30.79 M76.26 107.37 C91.51 89.83, 106.76 72.29, 137.28 37.18 M76.26 107.37 C95.88 84.81, 115.49 62.24, 137.28 37.18 M81.25 107.73 C103.18 82.51, 125.1 57.29, 137.67 42.83 M81.25 107.73 C93.98 93.09, 106.7 78.46, 137.67 42.83 M86.9 107.34 C105.48 85.96, 124.06 64.58, 137.41 49.22 M86.9 107.34 C102.67 89.19, 118.44 71.05, 137.41 49.22 M91.88 107.7 C103.19 94.69, 114.49 81.69, 137.15 55.62 M91.88 107.7 C106.19 91.24, 120.5 74.78, 137.15 55.62 M97.53 107.3 C110.09 92.85, 122.65 78.4, 137.54 61.27 M97.53 107.3 C107.81 95.47, 118.1 83.64, 137.54 61.27 M102.51 107.66 C109.53 99.59, 116.54 91.53, 137.28 67.66 M102.51 107.66 C116.3 91.8, 130.09 75.93, 137.28 67.66 M108.16 107.27 C115.82 98.45, 123.49 89.63, 137.68 73.31 M108.16 107.27 C119.79 93.88, 131.43 80.49, 137.68 73.31 M113.14 107.63 C120.03 99.71, 126.91 91.79, 137.42 79.7 M113.14 107.63 C119.54 100.27, 125.93 92.92, 137.42 79.7 M118.79 107.23 C123.59 101.7, 128.4 96.17, 137.16 86.1 M118.79 107.23 C124.81 100.3, 130.83 93.38, 137.16 86.1 M123.77 107.59 C128.17 102.54, 132.56 97.49, 137.55 91.74 M123.77 107.59 C128.98 101.6, 134.19 95.61, 137.55 91.74 M129.42 107.2 C131.46 104.84, 133.51 102.48, 137.29 98.14 M129.42 107.2 C131.21 105.14, 133 103.08, 137.29 98.14 M134.4 107.56 C135.44 106.37, 136.47 105.18, 137.68 103.79 M134.4 107.56 C135.28 106.55, 136.16 105.53, 137.68 103.79" stroke="#4c6ef5" stroke-width="0.5" fill="none"></path><path d="M0 0 C30.73 0, 61.45 0, 137 0 M0 0 C28.61 0, 57.21 0, 137 0 M137 0 C137 25.72, 137 51.44, 137 105.83 M137 0 C137 27.49, 137 54.98, 137 105.83 M137 105.83 C105.18 105.83, 73.36 105.83, 0 105.83 M137 105.83 C86.63 105.83, 36.25 105.83, 0 105.83 M0 105.83 C0 68.62, 0 31.41, 0 0 M0 105.83 C0 78.63, 0 51.43, 0 0" stroke="#000000" stroke-width="1" fill="none"></path></g><g transform="translate(244.73155212722276 895.7162161178717) rotate(0 32.989967346191406 12)"><text x="32.989967346191406" y="0" font-family="Virgil, Segoe UI Emoji" font-size="20px" fill="#000000" text-anchor="middle" style="white-space: pre;" direction="ltr" dominant-baseline="text-before-edge">Vetoed</text></g><g stroke-linecap="round"><g transform="translate(342.43371988827295 743.2511298191812) rotate(0 -23.48679534468249 48.666311492331374)"><path d="M0 0 C-18.2 37.72, -36.41 75.43, -46.97 97.33 M0 0 C-12.17 25.21, -24.33 50.42, -46.97 97.33" stroke="#000000" stroke-width="1" fill="none"></path></g><g transform="translate(342.43371988827295 743.2511298191812) rotate(0 -23.48679534468249 48.666311492331374)"><path d="M-43.96 67.48 C-45.13 79.05, -46.3 90.62, -46.97 97.33 M-43.96 67.48 C-44.74 75.22, -45.52 82.95, -46.97 97.33" stroke="#000000" stroke-width="1" fill="none"></path></g><g transform="translate(342.43371988827295 743.2511298191812) rotate(0 -23.48679534468249 48.666311492331374)"><path d="M-25.48 76.4 C-33.81 84.51, -42.14 92.62, -46.97 97.33 M-25.48 76.4 C-31.05 81.82, -36.61 87.25, -46.97 97.33" stroke="#000000" stroke-width="1" fill="none"></path></g></g><mask></mask><g transform="translate(624.1383120071687 1144.5696624702318) rotate(0 81.92816925048828 10)"><text x="0" y="0" font-family="Virgil, Segoe UI Emoji" font-size="16px" fill="#000000" text-anchor="start" style="white-space: pre;" direction="ltr" dominant-baseline="text-before-edge">process finalize vote</text></g></svg>